<svg width="107" height="48" viewBox="0 0 107 48" fill="none" xmlns="http://www.w3.org/2000/svg">
<g clip-path="url(#clip0_159_130)">
<path d="M1.59862 42.7206C2.4331 43.4581 3.5301 43.9063 4.73024 43.9063C4.89432 43.9063 5.0584 43.8969 5.22249 43.8829C5.61159 44.5598 6.53983 46.4082 7.31335 48.0047H9.08075C8.48537 46.763 7.40243 44.5271 6.79767 43.4348C8.37285 42.6693 9.46517 41.0588 9.46517 39.1963C9.46517 36.601 7.34148 34.4864 4.73493 34.4864C2.12837 34.4864 0 36.5963 0 39.1917V48H1.59862V42.7206ZM4.73024 36.0735C6.45544 36.0735 7.86186 37.4739 7.86186 39.1917C7.86186 40.9095 6.45544 42.3098 4.73024 42.3098C3.00504 42.3098 1.59862 40.9095 1.59862 39.1917C1.59862 37.4739 3.00504 36.0735 4.73024 36.0735Z" fill="white"/>
<path d="M56.7722 35.7654C58.4974 35.7654 59.9038 37.1658 59.9038 38.8836H61.5025C61.5025 36.2882 59.3788 34.1737 56.7722 34.1737C54.1657 34.1737 52.042 36.2882 52.042 38.8836V43.2854C52.042 45.8808 54.1657 47.9953 56.7722 47.9953C59.3788 47.9953 61.5025 45.8808 61.5025 43.2854V42.4872H57.6067V44.079H59.8007C59.4444 45.414 58.2208 46.4036 56.7722 46.4036C55.047 46.4036 53.6406 45.0032 53.6406 43.2854V38.8836C53.6406 37.1658 55.047 35.7654 56.7722 35.7654Z" fill="white"/>
<path d="M25.5495 38.5802C23.993 38.5802 22.6054 39.3364 21.7428 40.494C21.724 40.2046 21.71 39.9105 21.71 39.6165C21.71 37.9453 22.0147 36.3116 22.6147 34.7665L21.1239 34.1924C20.4536 35.9241 20.1113 37.7493 20.1113 39.6165C20.1113 41.2689 20.3785 42.8886 20.9036 44.4384L20.9552 44.4197C21.4662 46.4689 23.332 47.9907 25.5448 47.9907C28.1513 47.9907 30.275 45.8761 30.275 43.2808C30.275 40.6854 28.1513 38.5708 25.5448 38.5708L25.5495 38.5802ZM25.5495 46.4082C23.8243 46.4082 22.4178 45.0079 22.4178 43.2901C22.4178 41.5723 23.8243 40.1719 25.5495 40.1719C27.2747 40.1719 28.6811 41.5723 28.6811 43.2901C28.6811 45.0079 27.2747 46.4082 25.5495 46.4082Z" fill="white"/>
<path d="M46.365 43.2761C45.193 43.2761 44.1241 43.7195 43.3037 44.4431V34.3651H41.7051V48H43.3037C43.3037 46.2729 44.6773 44.8678 46.365 44.8678C48.0527 44.8678 49.4263 46.2729 49.4263 48H51.0249C51.0249 45.3953 48.934 43.2761 46.365 43.2761Z" fill="white"/>
<path d="M15.1375 38.5148C12.5309 38.5148 10.4072 40.6294 10.4072 43.2247C10.4072 44.4851 10.8995 45.6661 11.7949 46.553C12.6903 47.4445 13.8764 47.9346 15.1422 47.9346C16.3423 47.9346 17.4393 47.4865 18.2738 46.749V48H19.8724V42.8466H19.8583C19.6661 40.424 17.6268 38.5102 15.1422 38.5102L15.1375 38.5148ZM15.1375 46.3429C14.2983 46.3429 13.5154 46.0208 12.9247 45.428C12.334 44.8398 12.0059 44.0556 12.0059 43.2247C12.0059 41.507 13.4123 40.1066 15.1375 40.1066C16.8627 40.1066 18.2691 41.507 18.2691 43.2247C18.2691 44.9425 16.8627 46.3429 15.1375 46.3429Z" fill="white"/>
<path d="M35.9578 38.5148C33.3512 38.5148 31.2275 40.6294 31.2275 43.2247C31.2275 44.4851 31.7198 45.6661 32.6152 46.553C33.5106 47.4445 34.6967 47.9346 35.9625 47.9346C37.1626 47.9346 38.2596 47.4865 39.0941 46.749V48H40.6927V42.8466H40.674C40.4817 40.424 38.4424 38.5102 35.9578 38.5102V38.5148ZM35.9578 46.3429C35.1233 46.3429 34.3357 46.0208 33.745 45.428C33.1543 44.8398 32.8262 44.0556 32.8262 43.2247C32.8262 41.507 34.2326 40.1066 35.9578 40.1066C37.683 40.1066 39.0894 41.507 39.0894 43.2247C39.0894 44.9425 37.683 46.3429 35.9578 46.3429Z" fill="white"/>
<path d="M73.7332 38.5802C71.1266 38.5802 69.0029 40.6947 69.0029 43.2901C69.0029 44.5504 69.4952 45.7314 70.3906 46.6183C71.286 47.5099 72.4721 48 73.7332 48C76.3397 48 78.4634 45.8854 78.4634 43.2901C78.4634 40.6947 76.3397 38.5802 73.7332 38.5802ZM73.7332 46.4082C72.8987 46.4082 72.1111 46.0815 71.5204 45.4933C70.9297 44.9052 70.6016 44.121 70.6016 43.2901C70.6016 41.5723 72.008 40.1719 73.7332 40.1719C75.4584 40.1719 76.8648 41.5723 76.8648 43.2901C76.8648 45.0079 75.4584 46.4082 73.7332 46.4082Z" fill="white"/>
<path d="M84.1414 38.5802C81.5348 38.5802 79.4111 40.6947 79.4111 43.2901C79.4111 44.5504 79.9034 45.7314 80.7988 46.6183C81.6942 47.5099 82.8803 48 84.1461 48C86.7526 48 88.8763 45.8854 88.8763 43.2901C88.8763 40.6947 86.7526 38.5802 84.1461 38.5802H84.1414ZM84.1414 46.4082C83.3069 46.4082 82.5193 46.0815 81.9286 45.4933C81.3379 44.9052 81.0098 44.121 81.0098 43.2901C81.0098 41.5723 82.4162 40.1719 84.1414 40.1719C85.8666 40.1719 87.273 41.5723 87.273 43.2901C87.273 45.0079 85.8666 46.4082 84.1414 46.4082Z" fill="white"/>
<path d="M64.5215 38.5615H62.9229V48.0047H64.5215V43.3648C64.5215 41.6377 65.8951 40.2326 67.5828 40.2326V38.6409C66.4108 38.6409 65.3419 39.0843 64.5215 39.8078V38.5662V38.5615Z" fill="white"/>
<path d="M105.401 38.6409V43.2901C105.401 45.0079 103.995 46.4082 102.27 46.4082C101.435 46.4082 100.648 46.0815 100.057 45.4933C99.4664 44.9052 99.1382 44.121 99.1382 43.2901V38.6269H97.5396V43.2901C97.5396 45.0079 96.1332 46.4082 94.408 46.4082C93.5735 46.4082 92.7859 46.0815 92.1952 45.4933C91.6045 44.9052 91.2764 44.121 91.2764 43.2901V38.6269H89.6777V43.3881C89.7012 44.6111 90.1887 45.7547 91.0607 46.623C91.9327 47.4912 93.1422 48.0047 94.408 48.0047C96.0441 48.0047 97.488 47.1738 98.3366 45.9135C98.5053 46.1655 98.7022 46.4036 98.9226 46.623C99.818 47.5145 101.004 48.0047 102.27 48.0047C104.872 48.0047 106.991 45.8994 107 43.3088V38.6455H105.401V38.6409Z" fill="white"/>
<path d="M84.3565 24.3711C83.2126 23.4048 81.9656 22.574 80.6435 21.8971C80.3576 15.9969 77.8354 10.4934 73.5364 6.39502C69.2141 2.27327 63.5322 0 57.5455 0C44.794 0 34.4194 10.3301 34.4194 23.0267C34.4194 23.5495 34.4381 24.0723 34.4709 24.5998C29.5344 24.8379 25.0667 27.4286 22.418 31.6343L23.7728 32.4792C26.2622 28.5302 30.5424 26.1729 35.221 26.1729L36.2336 26.1822L36.1399 25.2953C36.0602 24.5438 36.0227 23.7783 36.0227 23.0267C36.0227 11.2076 45.6801 1.59175 57.5502 1.59175C68.7828 1.59175 78.037 10.1107 78.998 21.1456C76.6868 20.2167 74.1975 19.7265 71.6659 19.7265C63.3821 19.7265 55.9563 24.9452 53.1809 32.708L54.6858 33.2401C57.2361 26.1076 64.0572 21.3136 71.6659 21.3136C80.456 21.3136 87.9194 27.5593 89.4196 36.1715L90.9947 35.9008C90.2165 31.4243 87.8584 27.3259 84.3658 24.3664L84.3565 24.3711Z" fill="white"/>
<path d="M15.1486 13.9392L13.8682 14.8923L17.6744 19.962L18.9548 19.0089L15.1486 13.9392Z" fill="white"/>
<path d="M9.23192 22.1675L9.00391 23.743L15.2959 24.6458L15.5239 23.0703L9.23192 22.1675Z" fill="white"/>
<path d="M23.2084 11.5272L22.3018 17.7921L23.884 18.0192L24.7907 11.7542L23.2084 11.5272Z" fill="white"/>
</g>
<defs>
<clipPath id="clip0_159_130">
<rect width="107" height="48" fill="white"/>
</clipPath>
</defs>
</svg>
